<mxfile modified="2023-02-16T09:00:57.902Z" host="app.diagrams.net" agent="5.0 (Windows NT 10.0; Win64; x64) AppleWebKit/537.36 (KHTML, like Gecko) Chrome/96.0.4664.45 Safari/537.36" etag="XvbBT3zgBeO35Lg9Iq0m" version="20.8.20" type="github">
  <diagram id="Ht1M8jgEwFfnCIfOTk4-" name="Page-1">
    <mxGraphModel dx="2074" dy="1067" grid="1" gridSize="10" guides="1" tooltips="1" connect="1" arrows="1" fold="1" page="1" pageScale="1" pageWidth="1169" pageHeight="827" math="0" shadow="0">
      <root>
        <mxCell id="0" />
        <mxCell id="1" parent="0" />
        <mxCell id="EH_h6vuzFBWUohLpQMYl-3" value="COW" style="fillColor=none;strokeColor=#5A6C86;dashed=1;verticalAlign=top;fontStyle=0;fontColor=#5A6C86;fontSize=42;" vertex="1" parent="1">
          <mxGeometry x="45" y="30" width="300" height="300" as="geometry" />
        </mxCell>
        <mxCell id="EH_h6vuzFBWUohLpQMYl-5" value="Cloudera Data Platform" style="fillColor=none;strokeColor=#5A6C86;dashed=1;verticalAlign=top;fontStyle=0;fontColor=#5A6C86;fontSize=42;" vertex="1" parent="1">
          <mxGeometry x="350" y="419.5" width="810" height="400" as="geometry" />
        </mxCell>
        <mxCell id="EH_h6vuzFBWUohLpQMYl-27" value="" style="rounded=0;whiteSpace=wrap;html=1;fontSize=16;" vertex="1" parent="1">
          <mxGeometry x="730" y="514.5" width="400" height="275.5" as="geometry" />
        </mxCell>
        <mxCell id="EH_h6vuzFBWUohLpQMYl-1" value="" style="verticalLabelPosition=bottom;html=1;verticalAlign=top;align=center;strokeColor=none;fillColor=#00BEF2;shape=mxgraph.azure.website_generic;pointerEvents=1;" vertex="1" parent="1">
          <mxGeometry x="145" y="110" width="140" height="114" as="geometry" />
        </mxCell>
        <mxCell id="EH_h6vuzFBWUohLpQMYl-24" style="edgeStyle=orthogonalEdgeStyle;rounded=0;orthogonalLoop=1;jettySize=auto;html=1;exitX=0.5;exitY=1;exitDx=0;exitDy=0;entryX=0;entryY=0.5;entryDx=0;entryDy=0;fontSize=8;" edge="1" parent="1" source="EH_h6vuzFBWUohLpQMYl-3" target="EH_h6vuzFBWUohLpQMYl-5">
          <mxGeometry relative="1" as="geometry" />
        </mxCell>
        <mxCell id="EH_h6vuzFBWUohLpQMYl-25" value="Request (Method POST)" style="edgeLabel;html=1;align=center;verticalAlign=middle;resizable=0;points=[];fontSize=16;fontStyle=1" vertex="1" connectable="0" parent="EH_h6vuzFBWUohLpQMYl-24">
          <mxGeometry x="-0.6129" y="-1" relative="1" as="geometry">
            <mxPoint as="offset" />
          </mxGeometry>
        </mxCell>
        <mxCell id="EH_h6vuzFBWUohLpQMYl-16" style="edgeStyle=orthogonalEdgeStyle;rounded=0;orthogonalLoop=1;jettySize=auto;html=1;fontSize=24;exitX=0.75;exitY=0;exitDx=0;exitDy=0;" edge="1" parent="1" source="EH_h6vuzFBWUohLpQMYl-5" target="EH_h6vuzFBWUohLpQMYl-32">
          <mxGeometry relative="1" as="geometry">
            <mxPoint x="755" y="420" as="sourcePoint" />
            <Array as="points">
              <mxPoint x="958" y="130" />
            </Array>
          </mxGeometry>
        </mxCell>
        <mxCell id="EH_h6vuzFBWUohLpQMYl-17" value="Response (JSON format)" style="edgeLabel;html=1;align=center;verticalAlign=middle;resizable=0;points=[];fontSize=16;fontStyle=1" vertex="1" connectable="0" parent="EH_h6vuzFBWUohLpQMYl-16">
          <mxGeometry x="0.3881" y="1" relative="1" as="geometry">
            <mxPoint as="offset" />
          </mxGeometry>
        </mxCell>
        <mxCell id="EH_h6vuzFBWUohLpQMYl-4" value="&lt;font style=&quot;font-size: 16px;&quot;&gt;&lt;b&gt;MVC#1 + MCV#2&lt;br&gt;Priority Matrix Model&lt;/b&gt;&lt;/font&gt;" style="sketch=0;points=[[0,0,0],[0.25,0,0],[0.5,0,0],[0.75,0,0],[1,0,0],[0,1,0],[0.25,1,0],[0.5,1,0],[0.75,1,0],[1,1,0],[0,0.25,0],[0,0.5,0],[0,0.75,0],[1,0.25,0],[1,0.5,0],[1,0.75,0]];outlineConnect=0;fontColor=#232F3E;gradientColor=#4AB29A;gradientDirection=north;fillColor=#116D5B;strokeColor=#ffffff;dashed=0;verticalLabelPosition=bottom;verticalAlign=top;align=center;html=1;fontSize=12;fontStyle=0;aspect=fixed;shape=mxgraph.aws4.resourceIcon;resIcon=mxgraph.aws4.machine_learning;" vertex="1" parent="1">
          <mxGeometry x="890" y="574.5" width="90" height="90" as="geometry" />
        </mxCell>
        <mxCell id="EH_h6vuzFBWUohLpQMYl-18" style="edgeStyle=orthogonalEdgeStyle;rounded=0;orthogonalLoop=1;jettySize=auto;html=1;fontSize=23;" edge="1" parent="1" source="EH_h6vuzFBWUohLpQMYl-9">
          <mxGeometry relative="1" as="geometry">
            <mxPoint x="730" y="620" as="targetPoint" />
          </mxGeometry>
        </mxCell>
        <mxCell id="EH_h6vuzFBWUohLpQMYl-9" value="Nifi Data Flow Management" style="shape=image;verticalLabelPosition=bottom;labelBackgroundColor=default;verticalAlign=top;aspect=fixed;imageAspect=0;image=data:image/png,iVBORw0KGgoAAAANSUhEUgAAAgAAAAIACAYAAAD0eNT6AABLRUlEQVR42u3deXhcV3038O+5s2gfrZZtSV7kLXsMBQphbwtlLaVQh7KGxJZEEpJoRo4ToH0Z1sSxNWM7mKAtgbQFanjbl+Wh0EKh7FD2bI7jJN5X2ZZG62hm7u/9w4bGxMucmXvvmeX7eR7+wJkz+t1jee53zjn3HAUiKjm3bNtWEUxXPSjAGwF8z5+y/u6eO9ZOmK6LiAqHZboAInJeMF0VFuBaANUAXp8OStR0TURUWJTpAojIWb3xBxosST8JoOkZfzyb8dmXbL2tZ5/p+oioMHAEgKjEWMjcibNv/gBQ6UurD5uujYgKB0cAiEpIb3xgoSXWbpwe+v9jGWX7ru5ff8OjpuskIvM4AkBUQiyoD+PcN38A8Illf9R0jURUGDgCQFQibt/6mZWZjO8RAIELvEwsy75mc2/Pz0zXS0RmcQSAqETYGf9HceGbPwAoW6yPma6ViMzjCABRCVi/Zehq28avkW2oF/WqWN+675ium4jM4QgAUQmwbWyE1r9nuQsi/AJAVMYYAIiKXDg29DIAr9VqpPCCcHzozaZrJyJzGACIipwC7s6lnQV1VzQa9Zuun4jMYAAgKmLh2NBfA3hxLm0FuCRR1/Yu09dARGZwDpCoSEWjUSsRavsVoFbn8TZ7U/6ZS+699dak6eshIm9xBICoSI2HOt6d580fAJYEUpU3m74WIvIeRwCIilA4FqtSqHscwKK830zhVDIQXLn9/dedMH1dROQdjgAQFaXQ7XDi5g8AgsaK1Nzfm74iIvIWRwCIisxtW4bm+2w8AaDOwbdNQeTKWF/3LtPXR0Te4AgAUZHx2fgEnL35A0AASuX0OCERFSeOABAVkTNb/v4KgM+N91eWekV/77rvm75OInIfRwCIiohtyya4dPMHALFlSzQa5ecCURngP3SiIhHpH3o9oP7S5R/z3In6trebvlYich8DAFERWLNjhw/ARi9+li3q7u6BgWrT10xE7mIAICoCHQfGuqBwpRc/SwEdtZO+20xfMxG5i4sAiQrcho0jdemAvQvAAg9/7IQv7V+1acP1R0xfPxG5gyMARAUuHcx8AN7e/AGgzvanP2z62onIPRwBICpgG7YNdaTTeByAiTn5jJVRz9l8+7qHTfcDETmPIwBEBSydwj0wc/MHAJ9tyWbTfUBE7uAIAFGB6o0Pv8QS+QFM/zsV+etYX/dXTfcHETmLIwBEBWjNjh0+S+ztMH3zBwCl4tHoA5WmyyAiZzEAEBWgRQfH3weo1abrOGPZeCi13nQRROQs898uiOgs4dhwkwXZJUCz6VqeYUbZ6rL+9ev2mi6EiJzBEQCigiN3FdjNHwCqYMk9posgIudwBICogET6h58LJf8DFw/8yYtYfx7rW/td02UQUf44AkBUKEQUlGxFod78AUBlPtU9MBAwXQYR5Y8BgKhARGLD7wbwMtN1XJi6vHbSutF0FUSUP04BEBWADRtH6tJBeycEbaZruThJ+NKBS3hOAFFx4wgAUQFI+zP/pzhu/gCgQhlf+mOmqyCi/HAEgMiw27d+ZmUm43sIQIXpWjTYAnVNPLLu56YLIaLccASAyLBM2ncviuvmDwCWgmyNRqP8DCEqUvzHS2RQpH94DRReY7qOHL0oUde21nQRRJQbTgEQGbJh40hdOmA/BqDddC15OGll0pdtvv3GY6YLISI9HAEgMiTttz+B4r75A0CT7fdvMl0EEenjCACRAX2bh54nFn6GQt70R4eoV8X61n3HdBlElD2OABB5LBqNWraltqNUbv4AROE+HhlMVFwYAIg8lqhrf7+CvNB0HU5SkJXjocwG03UQUfY4BUDkodvveWBBxp9+DECD6VpckMxY1uqtvWsfN10IEV0cRwCIPJQJpLehNG/+AFBh2fZnIMIvFkRFgAGAyCN9WwZfA8Ea03W4SQGv7Nsy/Hem6yCii2NSJ/JAOBarUqh7GMAy07V44Ggwmbrs7g/cdMp0IUR0fhwBIPKAUrX/gPK4+QPA/LnKwCdMF0FEF8YRACKX3bZl5BKfbf8Wxbfffz5sW1kv3RJe+xPThRDRuXEEgMhF0WjU8tn2EMrr5g8AliWZ+7oHBgKmCyGic2MAIHJRor79RgAvM12HGWp17aTFvQGIChSnAIhcctvWgcW+jPUwgDrTtRiUFMjz4pHuR0wXQkRn4wgAkUt8GWsA5X3zB4AKwBpZs2NHyWx7TFQqGACIXBDpH3wvgNearqMQKMgLF+0fv8V0HUR0Nk4BEDnszHa/jwBoMl1LAZn2pe2rN23oedJ0IUR0GkcAiByW9qe3gzf/P1ad8ashbhNMVDgYAIgc1Bcf+lsFvMV0HYVJ/VnflpG1pqsgotOYxokcEo4NNynIowDmm66lgI37/bjynlu7DpguhKjccQSAyDH2FvDmfzH1qbR8xnQRRMQRACJH9MUHXyeivmG6jmIhkLfHI91fNF0HUTljACDK0y3b/ikUSM88BGCx6VqKyKiVSV+x+fYbj5kuhKhccQqAKE/B9Oxd4M1fV4vt88dNF0FUzjgCQJSHSP/wX0DJf4L/lnKiFNb0h7u+bLoOonLEDy2iHN1x90B9Kmj9Dvz2n4/RjIUrt/Z2HTVdCFG54RQAUY5SFdY28OafrxafqEHTRRCVIwYAohxE+gffBMF7TNdREkTeFI4NX2e6DKJywykAIk19mwdaxLIeBp/5d9J4xmdfvfW2nn2mCyEqFxwBINJkW9Z94M3fafVWxnqAZwUQeYcBgEhDX3z43Qr4W9N1lCIF/Hk4PnKz6TqIygXTNlGWwrH72pXyPwRBo+laStg0RJ4b6+veZboQolLHEQCibIgoIDDEm7/rqmGpz3cPDARMF0JU6nymCyAqBpGGjpsVcJvpOspEW0VKzf7kW1/7gelCiEoZpwCILiIcv3+ZksxvAdSarqWMpJSNa/rXd/3SdCFEpYpTAEQXEI1GLSWZz4I3f68FxJIHo9EHKk0XQlSqGACILiBR1/4BAC8zXUd5Upcn6lIfM10FUaniFADReYRjI89XsH8MgAvSzLGVjdf2r+/6T9OFEJUaBgCic7hp+/baymTwlwBWma6FcDRjYTUPDCJyFqcAiM6hIhn4NHjzLxTzLVtxl0AihzEAEP2RSP/wGgX1btN10P9SkNeF40M3mq6DqJQwURM9Q6T//kWwMr/NdcOf6soKNNbVYGxqGlPTs6Yvp9TMWhZeuLm363emCyEqBQwARGdEo1F/ItT+3wBerNvW57Nw2dJFaG9pApTC1PQsfvi7R01fUil6RDDxgngkMmO6EKJixykAojMmQm3/gBxu/pay8JyVnWif1wyo05l6fHra9OWUqisU6u42XQRRKWAAIALQGx9+iUB9KJe2Kxe3oaWh/g//XwDsOcQF6y66JRwb/ivTRRAVOwYAKnt33D1Qbwn+CTmcjdEUqsPSBfPO+rODx0YxMc0RahcpBRnpjQ8sNF0IUTFjAKCylwpY9wGyVLed3+/HlSuW/GHYHwDSdga79x82fUnlYJ4l6rN8NJAodwwAVNYi/YPvhcLbc2l7ReciVAWDZ/3ZnkPHkEylTF9WmVB/2Rcf6TVdBVGxYgCgstW3eeBSKHVvLm07WpuxoPnsJwWTcynsOcy5fy8J5K5wbOT5pusgKkYMAFSWotEHKmFZX0AOp/xVVVbg0iWLnvXnuw8cRiZjm760clOhYH85HBtuMl0IUbFhAKCylKhLbRfgObrtlFJYvWIpfL6z/+lMTc/i4PETpi+rXC2xIFwPQKSJAYDKTjg2+HdQ6oZc2q7oWIj62ppn/fnOvQcgIqYvrWwJ8FeR2PAtpusgKiYMAFRWIv2DqxTUYC5tG0O16Gxf8Kw/P5mYwOh4wvSlkcLm3vjINabLICoWDABUNqLRByqhsANAnW5bv9+Hq5cvffbe2SJ4fO8B05dGpwUssb9486c+12y6EKJiwABAZSNRn7kPUKtzaXt55yJUVgSf9ecHjp9AYoqb/hSQxRVzc1wPQJQFBgAqC33xobdD5L25tF3Y0oSFzc9eZJ6xbTx5kJv+FKA3cn8AootjAKCSd9uWkUtEMJBL26rKClzeufic/23PoaOYTXLTn0IkkI298eGXmK6DqJAxAFBJW7/pwRqfnflX5DDvbymFq1cshd/37H8ms8k5PM0DfwpZwBL5Qt/mgRbThRAVKgYAKmniS24H1OW5tF25uB0N53jkDwB27j2IjM1NfwrcIrGsz3E9ANG5MQBQyQrHhq4X4Lpc2s5rrMeSha3n/G8nxidw9OQp05dH2Xl9OD683nQRRIWIAYBKUjg2cJUCPpVL26pgEFee65E/AMLH/oqOAj7Zt2X45abrICo0DABUcjZsHKlTsHYAqNZtaymFq1d1Iuj3nfO/7z18DBPTfOyvyPjFlh298YGFpgshKiQMAFRaRFQ6IA8AuDSX5pcs6TjvvH8ylcaTh46YvkLKzXwl1uej0ajfdCFEhYIBgEpKZMtIHyBvzaXtguYGLF4w77z/fde+g0inM6YvkXKkgFcm6ts+aroOokLBAEAlozc+cg1EPplL2+rKClzRueS8/31scgqHedpf8RN1Z198+M2myyAqBAwAVBLWb7qv1RL7SwACum0tS2H1yk74zzPvDxHs3LMfPOuvJCiB3B+O37/MdCFEpjEAUNGLRqOW7ff/E4D2XNpftnQRQjXnXy+4/9gJjE9Om75McoqgUUn6X8OxWJXpUohMYgCgojceav8EBK/Ope3C5iZ0tJ5/s7h0Oo3dBw6ZvkRynFqtVG3cdBVEJjEAUFGL9A++UQF35NK2pqoSVyxbfMHXPLH/MOZSadOXSW4Q1RPpH3yv6TKITGEAoKLVt3l4iVLqswC0t3r1WRZWr+yEz3f+fwKT07PYf2zU9GWSm5S6rzc++BzTZRCZwABARSkafaBSfPJ/BWjOpf1lnYtRV33+KWAB8Nie/RDh0r8SV6nE2nHH3QP1pgsh8hoDABWlRCizDYLn5dK2o7UF7fOaLviaI6MncTIxYfoyyQMKsjIV5KFBVH4YAKjohGPD7wCkK5e2tVWVuHRpxwVfk8nY2LWPC//KzF/3xYduNV0EkZcYAKionD7kR4Zyaeu3fFi9ahl81oV/7Z88eBizc3OmL5U8JlCb+jYPvNR0HUReYQCgopHPIT8AcNmyRaitqrzga6Znk9h7+LjpSyUzArZlfeGWbffPy/+tiAofAwAVBxGVCtj3I8dDfhbPn4e2lqaLvu6xPQdgi236askQBXT405kvrtmxw5f/uxEVNv6SU1EI13f0KaA3l7Z11VVYvaoTlrrwGq9jp8bx1MHDpi+VDFNAZ0NiFj/51te+Z7oWIjdxBIAKXm985BoF5HTIT8Dnw3MuWX7ReX/bFuzce8D0pVKBEKi/74sPvs50HURuYgCggvaMQ36Cum0VgCuXL0F1xcWbPn3oCGZmk6YvlwqHJVD/vH7TUKfpQojcwgBABSvfQ34WL2xFa1PDRV83m0zh6cNHTV8uFRpBo23hX27Ztq3CdClEbmAAoIKVqG/7eK6H/NTXVuOSRdnlhsf27kcmw4V/dA4KLwikqvpNl0HkBgYAKkjr48NvgKicDvnx+/1YvbITyrr4xm4nxidw7OSY6culQqZwc198+N2myyByGgMAFZz1m4Y6bcg/IoffTwXgquWLUVVx8VFbEcHOPftNXy4VARH5dG986DLTdRA5iQGACkr3wEBAfPhnCBpzab+0bT5aGxuyeu3eI8cxOTNr+pKpONT6BP+2YeNInelCiJzCAEAFpXbSigtwTS5tG2prsGJRW1avTabSeJLP/JMGAS5J++0B03UQOYUBgApGODZ4LRRuzqVtMBDIarOf33t87wGk0xnTl0zFRuHtffHhdabLIHICAwAVhNu3fmalAnI65AdK4aoVS1EZzG6rgLHJKRwZPWn6kqlIici9kf7h55qugyhfDABkXDT6QGUm4/sXQIVyab+8fQFa6rOcmhXBY08fgJi+aCpmlVCy4467B+pNF0KUDwYAMi5Rl9oOIKdvVE2hWizvWJj16/cfG0Viasr0JVPxW5GqsHIbsSIqEAwAZFQ4NvwOKHVDLm0rAn5cvbIT2c36A+l0GrsPcOEfOUSwJhwbfr/pMohyxQBAxqzfNHylguQx79+JikAg6ya7DhzCXCpt+rKphChIrDc+ktNTK0SmMQCQETdt315r+2QHgOpc2q/sWIjmbOf9ASSmZnDgyKjpy6bSE7DE/uLNn/pcs+lCiHQxAJARFcnApwHktLNaS0M9lrXNz/r1AmDnnv1c+EduWRycS34OItnORhEVBAYA8lykf+hGBZXT3uoVwSCuWr4EyPJ5fwA4PHoSpyYmTV82lTAF9YZwfHi96TqIdDAAkKd64wN/AoVYLm2VUli9shPBgD/rNpmMjV37Dpq+bCoDCvhk3+aBl5qugyhbDADkmZu2b6/1ifV5AJW5tF+1uB2NdTVabXYfOITkXMr0pVN58NuW9YW+zQMtpgshygYDAHmmcjb4GQEuyaXtvMZ6LFnYqtVmenYW+7jwjzykgA6xLK4HoKLAAECe6IsPdUPhnbm0rQoGceXypVk/7/97j+05CFts05dO5ef1ffGRXtNFEF0MAwC5LhwbvEIE8VzaWkrh6lWdCPp9Wu2OnhzD6Ni46UunMiWQjdwfgAodh6nIVes3PVhj+2Z/DqjLc2mvLIW6qirUVFaipqoSNZUVqK6uQE1lJXzWufNrxrbxo989hpnZpOnLp/K2T6CeG4+s48lTVJCyX05NlAPxJe/N9eYPAGILElPTSExNn/XnCkBFRRC1lRWorqpCTdXpUFBbVYEDx07w5k+FYDEgAwDWmC6E6Fw4AkCuifQPvQ0KXzRdB5FJArkxHun+jOk6iP4YAwC5IhwbXqFg/zLXI36JSsgsRL041rfu16YLIXomLgIkx92ybVuFguzgzZ8IAFApCv+yYeNI9odXEHmAAYAcF0hV9QN4ruk6iAqFgqzMBGTQdB1Ez8QpAHJUpH/wrVDqy6brICpEAvXeeGTd50zXQQQwAJCDIv33L4LK/AZAk+laiArUlK3wgi3hrsdMF0LEKQByRDQa9UNldoA3f6ILqVGCL0ajD+R0HgaRkxgAyBEToY4PA3iR6TqICp0Crh4PZe42XQcRpwAob+HY0MsU8F0Aevv1EpUvgcibYn3dXzddCJUvBgDKS2/8gQZL0r8BsMR0LURF5rgv7b9604brj5guhMoTpwAoLz7J3Afe/IlyMS/jS3+WRweTKRyypZxF4sM3APKhXNp2ts1HW3MzKiuC8FkK6UwGtojpSyLylsKKF//0l6d+8q2v/cx0KVR+mDwpJ7ffM7A847d+DUB7d7OWhnr8yaXLn/XLl0ylMDk9g8mZJBJT05icmcHk1CxssU1fLpGbkhDrhbG+tb81XQiVFwYA0haNRv3joY4fKsgLddtWBoO45qpLEQxkdxClLTYmp5OYnJ7GxPQMJqZncWI8YboLiBwmj07WyAsGe3qm838vouxwDQBpS9R3fDyXmz+UwpXLl2R98wcAS1kI1VShbV4zLlnSgYXNjaYvn8gF6vK6Kd8m01VQeWEAIC3h2OArILI+l7Yr2heguT7381AyGRtP7D9kuguIXCGQm8Kxob82XQeVDwYAytqdd326UUE9iBwWjzbW1WJZx8K8fv6TBw8jmUqZ7gYi1yhgeMPGkTbTdVB5YACgrKUqAp8BsFi3XcDvw1Url+a14GRmNom9h4+b7gIit7Wkg/Zno9EoP5vJdfwlo6xE+od7BLhWt50CcPWKTlQFg3n9/J37DvJpACoPglePh9rDpsug0scAQBcV6R9cBSWxXNouXjAPLQ2hvH7+ifEJHDs5ZrobiDyjgE9G+kdWm66DShsDAF1QNBr1i7IeBFCt27amuhIrF7fn9fNFBDv37DfdDUReC0JlPs9TA8lNDAB0QeOhtjtzeeTPUhaes6ITPiu/X7G9R45jcmbWdDcQGaAuHw+lP2y6Cipd3AiIzqs3PvgcS9TPAGhP4F+6pANLFrbm9fPHJibx80d2gRsEUxmzlaX+rL933fdNF0KlhyMAdE63bNtWoUR9Djnc/Jsb6rA4z5s/RPDYnoO8+VO5s8SWBzZsHMl9Aw2i82AAoHMKpCo/qoCrddv5/X5c2ZnfI38AcPD4SSSmpkx3A1EhWJYO2htNF0GlhwGAniXSP/hiKNWXS9srOhejsiKQ189P2xk8cYA7/hH9geB9ffHB15kug0oLAwCdZf2mB2tEWZ9FDrv9dbQ2Y0FzQ9417Dl4DMk57vhH9AxKoIbDseEm04VQ6WAAoLOIL7lZQVbqtquqrMClSxbl/fOTc3PYc/io6W4gKjyCNiWyzXQZVDoYAOgP+jYPvVqAHu2GSuHKZYvh8+X/6/T43kPI2Nzxj+icFN4Zjg1q78hJdC4MAAQA6I0/0CAWRpDDo6GdC1vRFMp/kfLY5BSOnDhpuiuICpqC2n77PQ8sMF0HFT8GAAIAWJLeDkB7DL+2qgorOvI/vEwA7NxzgI/9EV1cS8aX/ixEuI8L5YUBgNAXH34zgHfotlNK4coVS2BZ+X8OHR09hfFJPvZHlBWF14TjwzeYLoOKGwNAmbtty9B8ERnKpe3yjgWor9E+IuBZxBY+9kekSQHxvs3DS0zXQcWLAaDM+QT3AmjRbReqrUZnmzPTkPuOHsf0bNJ0VxAVmzrbkvs5FUC5YgAoY5H+wTdCsEa3nc+ycPWKTlgq/8+ddDqDpw4dMd0VREVJAX8ejo+8x3QdVJwYAMrUHXcP1EOpz+TSdsWiNtRUVjhSx1OHjmAulTbdHURFS0Fit20Zmm+6Dio+DABlKhW0+gG067arr63J+5S/35udm8O+I8dNdwVRsWs6M5VHpIUBoAxF+kf+DID2CmJLWbhy+WLHzpDevZ+b/hA5QrCmLz70FtNlUHFhACgz3QMD1bDsIeSw4c+KRQtRW1XlSB2T0zM4OHrKdHcQlQwRbL/zrk83mq6DigcDQJmpmVIfh2C5brtQTZVjQ/8AsGvfQUC47Q+RgxbMVQQ2mS6CigcDQBkJx4b/VEHdqttOWQpXLXdm1T8AnJqYwvGxhOnuICpFN4RjI39puggqDgwAZSIa3RFUIiPI4ZjfFW0LUVtd6VgtT+w/aLo7iEqVUpCBm7ZvrzVdCBU+BoAykagb/yAUrtRtV1ddhc52554wOj6WwKnEpOnuICphsrRyLvgx01VQ4WMAKAO98aHLoHCnbjsF4IrlS6AcGvoXALv57Z/IfYJbe+PDLzFdBhU2BoASF41GLUswDEB7554lC1sd2ev/946cOInE1IzpLiEqB5YlMhyNPuDc3B2VHAaAEjceag8DeLFuu6qKCixftNCxOkQET+4/bLo7iMrJpROh1AdMF0GFiwGghN22dWCxAj6SS9vLly2G39JeL3heB46NYooH/hB5SqDu7I0PXWa6DipMDAAlzJextgCo0W3X3tqMlvo6x+qwbcFTB4+a7g6ichS0bHyGJwbSuTAAlKgzzwL/jW67YMCPVYu0jwi4oP1Hj2N2bs50lxCVJ4WXh+NDbzNdBhUeBoASdMu2bRUW7G25tL10aQeCAb9jtWRsG08d5nG/RCYpqPgddw/Um66DCgsDQAnyp6vvEOAS3XYt9SEsbG5ytJb9R0cxN8fjfokMWzAXVB82XQQVFgaAEtO3eXiJgtyh285nWbi8c5GjtWQyNp4+xLl/okKgoG6J9I+sNl0HFQ4GgBIjlnwKgPbD+8vaF6CqUnurgAvad/Q45lIp011CRKf5oeztXBBIv8cAUEIi/YNvAvBG3XY1VZVY2ubcSX8AkLYz2MNv/0SF5iXh+Mh7TBdBhYEBoESEY7EqKLVFt50CcHnnIljK2V+FfYeOYy7NuX+iQqMg99x516cbTddB5jEAlAgLoQ8C6NRt19bajKaQc8/8A0A6Y2PPEX77JypQramK4MdNF0HmMQCUgHBseIVA1uu2C/h9WLXY2Wf+AWDvkaNIpTOmu4WIzkMg7wvHhv/UdB1kFgNACVCQrQC0D/1YtbgDQb9zz/wDp1f+7zt8zHSXENGFWQqyPRqN8h5QxviXX+T64kN/C+D1uu1CtdXomOfsM//AmZX//PZPVAyen6hrW2u6CDKHAaCIdQ8MVIuoTbrtFIDLly4ClLNPA2VsG3v47Z+oeCh19y3b7p9nugwygwGgiNVMWR8CZKluu7Z5zaiv1T4j6KL2H+Fz/0RFpimQSX/MdBFkBgNAkYr0379IAb267Xw+CysXtzlej20L9hzht3+ioiNq3fotQ1ebLoO8xwBQpJTKbEYOO/6t6GhDRSDgeD0Hjh1Hco7f/omKkC9jI266CPIeA0AR6o2PXCPAGt121ZUVWLygxfF6bBE8zbl/oqKlgD8Px4b/ynQd5C0GgGIjoizb3orTa/m0XLa0w/Ed/wDg4LETmE3Ome4ZIsqDUhK/Zds2Zw8EoYLGAFBkwvGR90DhBbrtWhvr0dLg/HHgAmDPYe76R1T0BMsDqaobTZdB3mEAKCLdAwPVCqK9YldZypUd/wDgyOgpTM8mTXcNETnBwv/p2zzg/DwhFSQGgCJSO23dDmCRbrvOha2oqdLeKDArew4fMd0tROQUQaNY1j+YLoO8wQBQJNZvuq8Vgj7ddsGgH51tC12p6fhYAompGdNdQ0TOujEcG15hughyHwNAkbD9/igA7WP7LlncAb/Pnb/mpw/y2z9RCQpYADcHKgMMAEUg0j+4CoJ1uu0aamuwsMX5/f4BYHxyCqcmJk13DRG5QCBvC8dGnm+6DnIXA0AxUNYnAejt3qMULuvs0H9WMEtPHeLKf6ISphTszaaLIHcxABS402d2y1t023XMa0aoxvn9/gFgcmYWx06Nm+4aInLXK8Kx4deaLoLcwwBQ4BTsu6G56U/A58PKRe4s/AOAPYeOACKmu4aIXKYg90SjUd4nShT/YgvY+vjwGwD1Z7rtOtsXIOjCfv8AMDs3h0MnTpnuGiLyxlWJuvZ3mC6C3MEAUKhElG3Lh3WbVQaDWLzAveO99x05DrH57Z+obCh8uHtgwJ1vFGQUA0CB6tsy/NZctvxd0bEQPsudv9ZMxsaBo6Omu4aIvLWibtp3nekiyHkMAAUoGo1atkB7N66aqkq0zXPnsT8AOHBsFKlMxmjfEJH3ROQfeFBQ6WEAKECJuvZ3KOBq3XarFrdDKXce/BMA+47wyF+iMrXYn67uMl0EOYsBoMCs2bHDpxT+XrddY6gWrY3On/b3e0dHT2GaR/4SlS0F+WD3wEC16TrIOQwABWbR/rEbBLhEt93KRe6c9vd7e/jtn6jcLayd9t1kughyDgNAAYlGdwShlPa3/9amBjTWubPpDwCcSkxifHLKaN8QUQEQueOm7dtrTZdBzmAAKCCJurHrACzWaaMALO9Y4Gpdew5z218iAgC0VCSDN5ougpzBAFAg1uzY4RNl3a7brrWpEaFq96blZpNzOM5tf4noDAX0cS1AaWAAKBCL9o+/U0FW6rTx4tv/3qPHwW1/iOgZ5tdOWtqnk1LhYQAoANFo1ILCBt1285sbUVdd5VpdGdvGwWPc+IeI/ojCndHoA5Wmy6D8MAAUgERd+xoAV2g1UgrL2t399n/w+Amk0tz4h4ieZWGiLsPdAYscA4BpIkoUPqjbbGGTu9/+AWD/kePGuoWICpySD0ajO4Kmy6DcMQAYFo4Pv0l31z8FYJnLc/+j4xOYnJk12TVEVNgWJ+rGeFJgEWMAMMwC7tBts6C5CbVV7k6/7efGP0R0EUqpO6PRKO8jRYp/cQaFY0MvE+AanTYKwNK2+a7WNTObxLGxhMmuIaIiIMAl46GON5iug3LDAGCQUmq9bpuWxnqEatyd+9979DggfPiPiC5OiWh/jlFhYAAw5LYtI5dA5I267Trb3J37t8XG4dGTxvqFiIqMwssj/UMvMl0G6WMAMMSXsddDs/+bQnWu7vkPAEdOjGEulTbZNURUbCxETJdA+hgADFi/6b5WKLxLt11nu7tz/wBw4Cg3/iEiTYK3hGPDK0yXQXoYAAzI+Py3AdBaxl9XXYXm+pCrdU3NJjE2MWmya4ioOPmUSK/pIkgPA4DHwrFYlQLep9tuWftCKJdr2899/4koVwrvvfOuTzeaLoOyxwDgMUuF3gmgSadNVUUF5jc3uFqXLTYOH+fiPyLKWU2yInCD6SIoewwAHhMR7bO0lyyY5/q3/6MnxjCX5uI/IsqdAm5Zs2OHz3QdlB0GAA+FY0MvA/AnOm18Pgvt85pdr+3AsROmuoWISseSRfvHXme6CMoOA4CHlMItum06Wlvg97sbqKdnkziVmDDWL0RUQnL4nCMzGAA8smHjSBsEb9ZqpBSWzJ/nem2Hjp/g4j8icoh6dd/mgUtNV0EXxwDgkUxAbgQQ0GnT2lCPqsoKV+sSgDv/EZGTlFjqZtNF0MUxAHggGt0RFEiXbrslC1tdr20sMYnp5JyRfiGiUqWu27BxpM50FXRhDAAemKgffxMArW38aqur0BSqdb22g8e5+I+IHFeXCcrbTBdBF8YA4AGxsU63zZIF7s/9Z2wbR06eMtInRFTabNH/3CNvMQC4LNJ//yIovEqnjd/yYUGz1l5BOTl6cgyZjG2sb4iodCnICyP9I6tN10HnxwDgusxaAFrP8S2c1wi/z/2/mkOjHP4nIhcpmzsDFjAGABdFo1ELCu/VbdfR2uJ6bbNzczg5xmf/ichV7wnHYlWmi6BzYwBwUaKu/bUAlui0CdXUIFRT7XptR0ZP8dl/InJbAxD6G9NF0LkxALhIFNbqtlk03/1tfwFw8R8ReULB5mLAAsUA4JJwbLhJAW/UaePzWVjoweK/mdkkEpPTxvqGiMqJeuX6TUOdpqugZ2MAcIkSeRuAoE6btnlN8Hmw+O/ISQ7/E5FnlPjwdtNF0LMxALhF4Z26Tdpb3F/8BwBHRse87g0iKmMCvMt0DfRsDAAu6Ns8vATAi3XaVFdWIlTr/uK/qZlZJKY5/E9Enros0j/8XNNF0NkYANxgyTsBKJ0mbfMa9Rrk6MiJMSNdQkTlTSnRHhUldzEAuEBEb75LAVjY4tHq/xNc/U9E3hOFt6/ZsUNrUzRyFwOAw3rjg8+BwpU6bRrqalFdobVeMCdT07OYnJkx1jdEVMYEbYv2J15pugz6XwwADvOJeodum7Z57j/6BwBHT4153R1ERH/AaYDCwgDgMAHeqvN6ZSnMb2r0pLZjDABEZNabotGo33QRdBoDgIPOrHJdptOmtaEBAb/702LJVArjUxz+JyJzBGhO1HW8wnQddBoDgKNEe8/rBc3efPs/fmocEG7/Q0RmKYW3mK6BTmMAcJISreF/y1KY1xDypLRjJ8dM9AgR0VkE8pZoNMp7TwHgX4JDIv2DqwB1uU6blvp6T7b+TdsZnEjw6F8iKggLEnVtLzJdBDEAOEYp9be6bRY0N3hS24mxBGybw/9EVDB4RHABYABwiGjOa1nKu+H/oyfHjfQJEdE5KUv7CxM5jwHAARs2jrRB8Cc6bZpCdfD7PXgaRgQnxhKmuoaI6BxkaTg2eIXpKsodA4AD0kF5LTT3/p/v0fD/+PQM5tJpA71CRHQh6rWmKyh3DACOEK1fZAWgtbHek8r47Z+ICpEFMAAYxgCQpzU7dvgg+AudNvW1NQgGAp7Ud2Kcq/+JqPAI8PKbtm+vNV1HOWMAyNPifaeuAaC1mX+LR4v/MhkbpyYnTXQLEdHFBCuSFX9muohyxgCQL8v3Gt0mXgWAE+MJCB//I6ICxWkAsxgA8iRKXqfz+oDfh1BtjSe1cfifiAqZQO/zk5zFAJCH9Zvua4XguTptWurr9R4XyMPoOBcAElFB6zy9iyqZwACQB9sKvAKafdjs0fD/TDKJ6dmkiW4hIsqastQrTddQrhgA8qHsl2u9HEBLQ50npXH4n4iKgdjQ+hwl5zAA5EVpnWtdV1OFCo8e/xub4Op/Iip8oqD1OUrOYQDIUTg23ARAayvLppA33/4B4OTElNddQkSkTQEd6zcNdZquoxwxAORMXgbN/mus82bPi2QqhRnO/xNRkbAt4SiAAQwAOVJKac//N4S8CQAnE5z/J6Ki8jLTBZQjBoBciWgFgJqqKgS9OP0PwFiCw/9EVEQsvfVU5AwGgBys3/RgDYDn6LRp9OjbPwCc4gJAIiomguW98YGFpssoNwwAOcj4kn8CQOvrfGOdN7v/pdNpTMzMmugWIqKcKfE933QN5YYBIAcWlPYvqlfz/6cmpgDh/v9EVFws2AwAHmMAyIGIPE/n9RXBIKqCQU9qG5vi/D8RFR/J4YsV5YcBIAdKQesXtcmjx/8AIDE57Xl/EBE54AWmCyg3DACaNmwcqRNgpU6bUG21Z/UxABBRkZp329aBxaaLKCcMAJrsoP08aPZbXXWVJ7XNJJOYS6dNdAsRUd58acVRAA8xAGiyc5in8ioAJKb47Z+IipgFrfVVlB8GAG1ylc6rKyuCCAa82QBonMP/RFTMRK02XUI5YQDQJbhc5+Uhj779A0BimgGAiIraZaYLKCcMADpEFIBLdJqEarzZAEgATHAEgIiK25LugQHvVk2XOQYADbdtG1wEQOtM37rqSk9qm0nOYS6dMdEtREROsaqn1SrTRZQLBgANflHaw1N1Hj0COMnhfyIqAT7of85SbhgANEhG7xfTZ1mo9GgHwKmZpJE+ISJykthcB+AVBgANovR+MasqK6A8qm2SBwARUQnQ/Zyl3DEAaFCCS3VeX1Ppzfw/AExNz3jeH0RETtP9nKXcMQBoEIVlOq+vrvRm+F8ATM5yBICISoDCUtMllAsGgCx1DwwEFLBQp01NlTcjAMlkCpmMbaRfiIgcVhuODTeZLqIcMABkqW7C1wbAp9OmurLCk9omZzn8T0SlQwmWmK6hHDAAZMm2RPuUqpoKb0YApqY5/E9EpUOU/uct6WMAyJKl+Qvp81kIBr05A4BPABBRKdH9vKXcMABkSWxL6xeyyqPn/4HTxwATEZUMUYtMl1AOGACyZYnWL2SFpwFgzvPuICJyiyhwBMADDABZU+06r67w6AhgATA7xwBARCVEwBEADzAAZEmJzNN5fUUw4Eldc6kUbFuM9AkRkRsU0Gy6hnLAAJA9redSgwFvAgCH/4mo1AgDgCcYALIkmgGgwqMAMDvLAEBEJacxGo3y/uQydnA2RBSARp0mFR49AjjD+X8iKj2+sfolIdNFlDoGgCzcsXEwBEDrjl7h92gEgFMARFSCFITbAbuMASALcxUB7fmoAEcAiIhyZqk01wG4jAEgG6KfRP2W1rEBOUvOpTzvDiIiD3AEwGUMAFlQgjqt1wOwLOVJbXPptIkuISJylWQsrgFwGQNAFkSJ1rF+Pp933ZpOZTzvDyIitynL9m471TLFAJAFJXq/iD6fN8P/tthI2wwARFR6BJY356mXMQaALChL6QUAj+b/51Ic/iei0iSaX7xIHwNAFmzRCwB+y5tuTaf57Z+ISpPS/NwlfQwAWdCeAvB7061zDABEVKJEgVMALmMAyIL2FIDy5gmAVJqPABJRaVICjgC4jAEgK3pPASiPAgDXABBRCfNmO9Uy5s12dUVOoGyt13t0Om86o1UWUdlSwNeUZX+idiz422j0+lnT9RAVAgaAbNgyB41v9R7d/2F7lTSIipoa6g+v7YFS/AdD9AycAsiCKEtrw33x6MZsC0cAiC5izJ9Sfbz5Ez0bA0AWLCUFeeKOzSkAogtSwA/uuWPthOk6iAoRA0AWxNYLAJ6NANj8UkN0ITZkzHQNRIWKASAL2lMAHtXFNQBEF6Y49E90XgwAWbAsW28KwLMRAE4BEBFRbhgAsiAZn1YA8OqbeYZTAERElCMGgCzYFrSeG06nvdmgh08BEBFRrhgAsmKP6bw6lfFoj36uASAiohwxAGTBn06f0Hl9Op3x5OasPDp1kIiISg93AsxC7dTRk4lQuwDIajtAweltev1+n6t1qezKISINd9w9UJ8OWjeL4OWw0GK6HkcJUrFI1zX5vk2kf6gXFt5l+nLOe5mi/i4eWbfbdB2FjgEgC9FoNB2JDY0DaMi2TSqTdj0AWB4dOkRULsKx+9pTsL4PYBkUvHum1zuObGqmFDpE8DzTF3P+Ai0ukMoCx5CzpaA1DeDJOgDe/4kcZcF/H4Blpuug/PjSyUnTNRQDBoBsiV4ASKfdD6AcASByzi3b/ikkwOtN10H5S4QsBoAsMABkSaA0A4D7jwJaFgMAkVMqZXI+AHfn7cgLmcHu7hnTRRQDBoAsKYhWAJhNpdyviSMARI6ZkwA/D0uCTPH0x+zwFz5bSh3Tefls0v0DBBkAiIj+mJoyXUGxYADIli17dV4+40EA8HEfACKisyggYbqGYsE7SJZEoeACQMDPpziJiJ5JlDpuuoZiwQCQJSXWHp3Xz8wlXa8p4PI+A0RERUdw1HQJxYIBIEupQMXTWq+fSyPj8nG9HAEgIjqbAgNAthgAsnTvre9KQOFUtq8XALNz7j4JwBEAIqKziRKtBdvljAFAh2CPzstnku5OA/h9DABERM8kIhwByBIDgA7RfBJg1t0AwBEAIqKzWZqPbJczBgANoqC1DmByZtbVergGgIjoj2RsBoAsMQBosJTaqfP6yWl3A4DPsrgdMBHRM6QD2Ge6hmLBAKBBbHlY5/WJafe3ow4GOApARHRG6tDCxoOmiygWDAAa/GnfQ9A4ITydTmM26e6TAFUVFaa7hYioIAjUni9de60HZ7GXBgYADffcsXYC0BtemphxdxSgKhg02SVERAVDwdZap1XuGAD0PaTz4kmXpwEqKxkAiIgAQEE9ZbqGYsIAoEuJVgCYmHJ7BIBTAEREAAClOAKggQFAk4iltRBwbMrdkyk5BUBE9HvCEQANDADaMlojADOzSczNpV2rpqoyYLpDiIgKgtjWE6ZrKCYMAJqmarATgNa4vpujAFXBCkBxLwAiKnvpVGBKa6+WcscAoGmwpycF4Bc6bcYmJl2rR1kKFdwLgIjKnuy699Zb3T+HvYQwAORC5Cc6Lx+bcHcdQDX3AiCiMqegtNZnEQNATpRlaQWAxNQ0xM56/yBtddVVpruEiMgoUWAA0MQAkAOVTv1Y5/UZ23Z1W+BaBgAiKnMielu1EwNATjbffuMxALt12pxMTLhWT111pekuISIyzNJ6QosYAHIm0FsHMDqWcK2Wuupq8DkAIipjE/WJA9wDQBMDQI6UKK0AcGpyEpmM7UotPp+FqgpuCEREZevn0WjUnQ/YEsYAkCPLhx/pvF5swSkXHwfkOgAiKltKfm66hGLEAJCjzbetewjAYZ02J9xcB1DDAEBE5UlE78ksOo0BIFdKCYDv6DQZPTXuWjl8FJCIypVtcQQgFwwA+RB8S+flUzOzSM6lXCmlrrradG8QEZnw1NberqOmiyhGDAB5SAV83wKQ9cITAXDs1JgrtVRXVqAiwIOBiKjs/NR0AcWKASAP9956w3EAv9Fpc+zkmGv1NIZqzHYIEZHHlBIGgBwxAORJgP/Qef3JxCRS6YwrtTTW1ZruDiIib2X8Wmux6H8xAOTJp/TWAdgiOO7SNEBjqM50dxAReelof9/1j5kuolgxAOSpdrz+xwC0nu876tI0QF1VJQJ+n+kuISLyynfOPJFFOWAAyFM0eu0cFL6h0+bE+IQ7uwIqhfpargMgojKhFIf/88AA4AAFfFnn9Rnbxui4O3sCNHEagIjKhI3Uf5muoZgxADhgotr+BoApnTaHjp9ypZbGEBcCElEZUHhyS/jGPabLKGYMAA4Y7OmZFuDfddqMjo1jLp12vJZQTTX8FtcBEFGpk2+brqDYMQA4Rr6k82pbBEdGTzpehaUUmho4DUBEJc5WXzVdQrFjAHDIVI18HdrTAM4HAABoqQ+Z7g4iIjdNhib8nP/PEwOAQ85MA2jtCTA+NY3J6VnHa2ltDEGZ7hAiIteob0Wj1zv/4VlmGAAcpTcNAACHXJgGqAgGUcPTAYmoVIlw+N8BDACOmvwKgDGdFodGT8AW5/exaG3kNAARlaSMEltr7xU6NwYAB8UjkRkBdui0Sc6lXDkgaF5jg+nuICJyww/71/eMmi6iFDAAOE6N6LbYf9T53+X62hpUBYOmO4OIyFEK6iumaygVDAAOi0fW/VyA3+m0OZmYwOT0jKN1KACtTQ2mu4OIyEm2z6+/1orOjQHABRbUZ3Xb7HNhFGA+AwARlRABvnfPrV0HTNdRKvymCyhJduYfYVl3A8h6DP7w8ZNYtagNfgdP82usq0FFMIDkXMp0j5Bx8l0Itvj89mNpO5gxXY1XfOnkpOkayDlK5IumayglDAAu6F/fMxqJD30FgjXZtknbGRwcPYklC+Y5V4hSmN/UgH1HjpvuEjJKDcXC63p4bCoVuWRwLq118BpdGKcAXCKi7tdts/fIMYjDjwQubGky3RVk1hFB4jbe/Knoifz73R+4yZ1T1MoUA4BL6hMH/kOgntBpMzObxJETY47W0VBbg5rKCtPdQYYo4N/jkYizK0yJDBCFL5iuodRwCsAl0WjUjsSHtkLwKZ12Tx06ggUtjY5u5buwpRm7Dxwy3SVkgIhw/idLFUkcSvvVtabrcJdtO/EuIviysrDLy8pFJr/m5c8rB9wy3kXdAwPVdVPWPgGaddo979IVaGlwbie/2eQcvv/rh8Ex4DKk1MZYeN2dpssgosLDKQAXDfb0TItSw7rtnjxw2NE6KiuCaKirNd0dRERUQBgAXCaSuheA1nN4Y5NTODXh7NNL7a1agxBERFTiGABcFo/ceBCA9s5VTzk8CrCguREBn3N7DBARUXFjAPCAshHTbTM6PoGTCedGAXyWhYXzOApARESnMQB4oH991y8B/EC33a59BxxduLdofgtXfRIREQA+BugZgfVxBftbOm3GJ6cxemoc8xrrHamhtqoSDXW1jq8voNITjg++SgF/LqJKbtgo7Z+59d5bb02aroPINAYAj8Qja/8jEhv6MYAX67R7Yv8hzGsIAcqZ7+6L5s9jAKDzikZ3BBN1Y/8CUW8GSvM54YzP1weAAYDKHqcAPKRsRHXbTEzP4PBJ53a/nN/cgIpg1mcUUZlJ1Cc+CnX65k9EpY0BwEP967v+E8CPdNvt3n8YYjuzGsBSCovnt5juCipAa3bs8AHSbboOIvIGA4DXRH1Yt8n0bBJ7jzq3o+vi+S3w+fhXT2drOzTeAkGj6TqIyBu8C3gs1rfuOxB8X7fd7gOHkExp7Sd0Xn6/H23zeEognc2y01wTRFRGGACMUB/VbZHJ2Hhin3MH+ixd0OrYwkIiIio+DAAGxPrWfQeQ7+q2Ozh6EompKUdqqK6sRKuDBw4REVFxYQAwRXxhAHpHc4rgsaed2xxoeUdbST7mRUREF8cAYEisb+1vFfA53XZjk1M4fPyEIzWEaqrQ3ODMJkNERFRcuOjHoIyyP2SJtQaA1lm9j+87iJbGegT9+f/1Le9YgNGxcdNdQVRU+jYPvVqUajBdh5tEpX585jAzKlEMAAZtCfccDscGNyqoj+m0m0ul8fjeg7hq+ZK8a2iorUFTqNbRg4eISp1YsgnAatN1uMlS/rcC+FfTdZB7OAVg3GQ/gL26rQ4dP4HR8YQjFazoaDPdCURE5DEGAMPikciMUvKhXNo+8tQ+pO1M3jU0hmrR3FBnuiuIiMhDnAIoAP29XZ8Px0duUZAX6rSbTc5h9/7DuHRJR941rOpox0/Hdjp6/DAR0TP1bR54qSj1Erd/jih8PR7pfsT09RY6BoBCoJT4tgx12zZ+ASCg03Tf4WNY0NyIhtqavEoI1VajtakRRx08eIiI6JlEWa+CgvZ26Jqm54LBYdPXWgw4BVAgNvd2/U4B23TbCYDf7d6DTEZvS4FzWbloIRR3BySiYiYY2f7+65x5VrrEMQAUkIka+/8AeEq33cxsEjv3Hsj759dUVaJ9XrPpbiAiylXGl7G3mi6iWDAAFJDBnp5pgbo5l7YHjo06Mny/YlEb/DwpkIiKkcK/btrQ86TpMooFP+kLTDyy7psQfCGXto8+vT/vEwMrAn50ti0w3Q1ERPpsxEyXUEwYAApQxocwgJO67eZSaTy8e0/eK/mXtrWiqrLCdDcQEWVP8P1YX9dPTZdRTBgACtDW3q6jAmzIpe3o+AT2HTme18+3lIVVi9pNdwMRkQb9Y9bLHQNAgYqH190P4Ju5tH183wGMT+Z3bPD85gY01mkdUUBEZMqPTh+zTjoYAAqVUmJl0tcBOKrbVGzBr3c9jbl0OvcfD+DyZYtg8bFAIipwysZHTNdQjBgACtjm2288JkBPLm2Tc3P47a6n81oPUFtVhSULW013AxHRhfy0f33Xf5ouohgxABS4eKTrKwBGcml7MjGB3QcO5fXzl3csRFUFFwQSUWFSSjj3nyMGgCJgZSpuA7Arl7ZPHziCoyfHcv7ZPsvCpUvzP2uAiMgFP+gPd/+76SKKFQNAEdh8+3umBNY7AWg/5C8AHnlyL6Zmkzn//NbGerQ2NZjuBiKis4ncabqEYsYAUCTikbW/UJC7cmmbymTwy52781oUeHnnIvj9PDuKiAqDAF+O9XX/2HQdxYwBoIjUJQ59DMB/59J2ZjaJ3+x6CrbkdmhQRSCAS5dwbwAiKghpJfIh00UUOwaAIhKNRtMZC28DcDCX9qcSk3j0qX05//z2ec1oaag33Q1EVO4UhmJ93Tmti6L/xQBQZLb2dh21lXobclgPAAAHj5/EUweP5Pzzr1y2mFMBRGSQJHwpP1f+O4ABoAhtCa/7kYLcnmv73fsP4ciJsZzaVgQ5FUBE5gjURzdtuD73bzH0BwwARao/0r0VCg/m0lYA/O7JpzE6nsjpZ7fPa8aC5kbTXUBE5eexqRp7m+kiSgUDQBGz0hU3AXgkl7ZiC37z+FMYm5jM6Wdf0bkIVcGg6S4gojIiUJHBnp78zjynP2AAKGKbb3/PVMay3gpITl/lM7aNXz/+JKamZ7Xb+v1+XLliCXhSABF5QuT/xSPrcjogjc6NAaDIbe1d+7jAehuAnB7yn0tn8IuduzGT1N8oqClUh6Vt8013ARGVvhnLVhHTRZQaBoASEI+s+6YA78u1/ezcHH6580nMpfRH1lZ2tCFUU2O6C4iohCmloptv73radB2lhgGgRMQjXSMQ2Zxr+6mZWfzPY/q7BSpL4TmrliLg95nuAiIqSfLbiepM3HQVpYgBoITEIl0bIPhCru0np2fw80d2Iak5ElBVUYGrVnQCiisCiMhRaWWrtVz45w4GgFKilIiaWKuAn+T6FlMzs/ifR3YhOaf3721eQwjLuB6AiJykVH//+q5fmi6jVDEAlJh4JDKTtvA3AHKeL5uaTeJ/HntCeyRgxaI2NIVqTXcBEZWG3SKJj5guopQxAJSg09sF4w0ARnN9j6mZWfz8kSeQnJvLuo0CsHrVclRXcH8AIspLRtn29fFIZMZ0IaWMAaBEbQl3PQaxXgWFU7m+x/TsLH726BOYns3+EcGg34fVlyyDz8dfLSLKjQCb+tf3/NB0HaWOn9IlLNa39rc2rDcAyG27P5w+RvhnD+/E2ORU1m1C1dW4evlSbhJERLl4pD7h59C/BxgAStyW8NqfQNSbAehv93fGXDqDXzz2BEbHst9wsLWpAcvaF5q+fCIqLknLwjui0etz/ryi7DEAlIFY37rvQCTnI4QBIJOx8atdT+LwiZNZt1nRsQDzmxpMXz4RFQul/n5zb9fvTJdRLhgAykSsr/urEHk7gEyu7yG24KEn9uDpQ0eza6AUrlqxFA11fDKAiC5Gvru/PcQNfzzEAFBGYn3d/1eAHgB2ru8hAHbtO4hHntoHW+Sir/dZFp67ahlqqipNXz4RFa7DVibzd1+69tqcv6CQPgaAMhOPdI0I1LuR4+FBv3fg2Ch+8egTWZ0fEAz48bxLliMYCJi+fCIqPLYoec/m2288ZrqQcsMAUIbikXWfF6i3ANA/AvAZTk1M4qeP7MLkzMUf1a2qrMBzV3XCZ/FXjoieQSEaD3d/23QZ5YifxmUqHln3NQjeAiCvjTZmZpP46cOP49jJsYu+tqGuFqtXdsLimQFEBEAB3w6NH/yE6TrKFQNAGYv1dX1DWeq1gGT/fN85ZDI2frPrKezadwgXWxUwr7Eeq1d2co8AItqnMul3RqPRnNckUX4YAMpcf++67wt8f6GAE/m8jwB4+tAR/M+juzA3d+HlBa1NDbhi2RKGAKLyNSuw3sp5f7MYAAjxyNpfZJS8CkCWz/ed36nEJH7y8E6MTVx488H21mZcsqTD9KUTkQFKybp4ZO0vTNdR7hgACACwJdz9GyuDawB5NN/3mp2bw88fewJ7jxy/4JTAkoWtWN6+wPSlE9E52JLFc745UEB/f7j7n01fHzEA0DNsvr3raVsFXiLAf+X7XmILdu7Zj19d5FjhFYvasLyDIYCo0PiUGnf6PS0L39vXUX+H6Wuj0/ymC6DCsiV8/Vg0uuN1ifrEAETem+/7jY5P4Me/24mrli9BS0PonK9Z0dEGQOHJA4dNX35ZS/vrJgKZ2Y2m67gYJZIQkZw3jGk9Pi/7M67LmGR8R5x+z83hru+Zvi76XwwA9CzR6LVzAK4PxwafVFAfBfJbrzeXSuFXO3ejvbUFly7tOOdeACs6Th8cxBBgzr23visB4E7TdVBBmJ2oS+0xXQS5i1MAdF7xSPfHlcK1yHOvAOD0UwIHjo3iZw8/jsTU9Dlfs6JjIZYsmGf6sonKnkB9d7CnZzr/d6JCxgBAF9Qf7vqyrdSrATjy1XxiegY/ffhxPLH/EGx59uO/nVwUSGScUviy6RrIfQwAdFFbwut+lPL7VgP4jhPvJyJ46uAR/PihnRibnDrrv6VSPAuEyLDdk9WZfzRdBLmPAYCycu+tNxwPJQ6+ViBx4KIb/mVlanoWP3/4cezcewAzs0kkpqfx8FN7TF8qUTkTpdTtgz09Fz/li4oeFwFS1qLRaBpAJBwb+m8FfA5Afb7vKQD2Hj6GvYe5IRiRcSKb+iNd/890GeQNjgCQtnik6yu2wjUAHjNdCxE5ROHB/YsaPmi6DPIOAwDlZEu46zF/ynqhgvqi6VqIKC9zEIRj4a7rvnTttVyEU0YYAChn99yxdqI/su7tSqn35HuiIBF5LgOFB60MLo31dW0xXQx5j2sAKG/94XX/2Bu/7weW+B8E8DLT9RC5TcF6TJSk838nD9mwRckxBeuQAN+bCwa+tf391+V1CigVN57ISo6JRqPWRKjtFoG6B0DQdD0EQKmNsfA67u5HRM/CKQByTDQatfsj3VsF9vMBPGS6HiIiOj8GAHJcPNLz0GSN/SJAPgXAzvsNiYjIcQwA5IrBnp7pWKT7FlvZLwDwK9P1EBHR2RgAyFVbwj2/CiUOvlBBegFM5ft+RETkDAYAcl00Gk33R7q3+tL2aij8p+l6iIiIjwGShzZt6HkSIq+JxIauU0ptFqDZdE10buHY8ApL2S8EVI3pWpxki5qMR9Z93nQdRIWAAYC8pZTEgM/2bR74OnzWRyHoAn8PC0Y0uiM4ERr/jEDeK6JK7jFhBdkLgAGACJwCIEP61/eMxsJdNynbtxrAN03XQ6clQmP9AlwP7hFCVPIYAMio/vU3PBqLdL1OoF4HyKOm6ylnN3/qc82Aep/pOojIGwwAVBDikXXfDCUOrRbIzQBGTddTjoJzySvB6RiissEAQAUjGo2m45HuT9vKv1KATwKYMF1TefFVmK6AiLzDAEAFZ0v4+rF4pOtDyWCwE4KPABg3XRMRUalhAKCCtf39152I9XVFk8HgcgYBIiJnMQBQwXt2EJCE6ZqIiIodAwAVjd8HgZTfvwIKUQDHTNdUSizbFtM1EJF3GACo6Nx76w3HY+Guj4QS9YsguA48etgRtmXx2X+iMsJHfqhoRaPXzgF4EMCDfZsHXiqWdQeAN4Cb2BARXRRHAKgk9K/v+WEs0vVXyvZdKcAg+AihNk4BEJUXBgAqKf3rb3g0HunqCSX8rRB1rQK+DYA3NiKiP8IpACpJ0ej1swC+BOBLkf7BVYB6BxSuB7DYdG1ERIWAAYBKXqyvexeAaDQa/Xiiru31UOoGAK8BUGm6NioN4djQfqVQ2EcnC/415Z+5+d5bb02aLoUKAwMAlY1oNJoG8FUAX+0eGKiumfL9BWCvUVBvAQr8w5sKmgIaIKg1Xcd5CJS6J5Q48MFoNGqbLoYKBwMAlaXBnp5pAF8D8LVwLNYDhF51Jgz8DVCwH+REuiYEcl083PVvpguhwsMAQGUvHonM4EwYuGn79tqKZOD1Slmvg8hrACw0XZ9XbJ+IEj5BWUJ2Kdv+69j6np2mC6HCxABA9AyfvvnmSQA7zvwP4fj9yyxkXiWCvwLwKpTwugEro5TwuaBS8W+28t+wZf31Y6YLocLFAEB0AfHwDU/h9L4Cg90DA9W1k9YrRam/tCCvEOAqAD7TNTqFIwAlYRaCSKyv6z7ThVDhYwAgytKZdQPfOPM/rN/0YI2omeeKUi+BUi8F8CIALabrzBVHAIqd2iPA2+J9635uuhIqDgwARDnafPt7pgD88Mz/NkJE9fU/cJltZa4B8KcWcJVArgBUyHSt2eAIQBETfCEVqHzfvbe+iydlUtYYAIicopT0A4/i9P9Gfv/HGzaOtKWCmcstwRU28Dyl1OUQXA6gynTJVPTGlcKG/kjXoOlCqPgwABC57J471h4CcAintyX+gzvv+nRjKhBYJkotA+xlotQyC1gmwDKc3rGQ/z7pvBTwbRHfDf2RG/abroWKEz9giAy5+wM3nQLwyzP/O0s0GvWPh+bP91n+ZjtjNSvLbrZFWpSoZlHSbEE1CdCsgEoBqqFQcaZpAwQKQAAKtbBl1vR1kuNmlJI7+nu7PgWleM4F5YwBgKgAndm18OCZ/xGdptQPM0qt29q79nGEu01XQ0WOa36JiArfFETuDI0feMXW3rWPmy6GSgNHAIiICts3Mj77xq239ewzXQiVFgYAIgIAKNsSlPSUstqjIEOmq8i+XByCjUisr+tfTJdCpYkBgIgAAGLZquT2AVA4JSJfh8KD8d513ymSRXMpAPelfFX/cG+Yz/WTexgAiAhASY0ATEDwVQCfDyUO/seZBZUokkVz34TIbbG+7l2mC6HSxwBAREVPgANK4WtKyVfmrNnv3XvrrUnTNWnaDZG+WF/3V00XQuWDAYCIipQ8CmV9TWUyX4/1df+oSIb3z6KAEyKyKRWY3VKEoYWKHAMAERWLw1D4oQK+nbbsb561Kn59j+nadE1DqXv9ycxdG+/sGTddDJUnBgAiKlSHofB9BfyXLeq/4pF1u00X5IAUlNxvQz6yJdxz2HQxVN4YAIioEKSg8DsIfgTBL0XJL+OR7kdMF+Xk9Qnki4D10Xi4qxSCDJUABgAiAgBYlojtzSz6YQU8YkM9osR+BLB+EZo48NAfVuuXlqSCGkn7Mhu5kQ8VGgYAInLDNICnATwNwdOi5FHLsh61bTwcj6w7abo4D0wK1EjAL5vvuXXdAdPFEJ0LAwAR6ZgVYFQBxwEcBTAKhVEFdVhs2StKPe3LpPZsvv3GY6YLNULhkBLcG0imBs6c9khUsBgAiAgAYM1ZOyWYeRegkjZkDKKSlo1pK5BJ2Cn/3ExV8sSnb7550nSdhUgBD4nIYCjR8Plo9No50/UQZeP/A3CkCCiK4jeYAAAAAElFTkSuQmCC;fontSize=24;" vertex="1" parent="1">
          <mxGeometry x="410" y="509" width="221" height="221" as="geometry" />
        </mxCell>
        <mxCell id="EH_h6vuzFBWUohLpQMYl-15" value="Web Browser" style="text;html=1;strokeColor=none;fillColor=none;align=center;verticalAlign=middle;whiteSpace=wrap;rounded=0;fontSize=16;" vertex="1" parent="1">
          <mxGeometry x="150" y="224" width="100" height="30" as="geometry" />
        </mxCell>
        <mxCell id="EH_h6vuzFBWUohLpQMYl-35" style="edgeStyle=orthogonalEdgeStyle;rounded=0;orthogonalLoop=1;jettySize=auto;html=1;entryX=0;entryY=0.5;entryDx=0;entryDy=0;entryPerimeter=0;fontSize=14;" edge="1" parent="1" source="EH_h6vuzFBWUohLpQMYl-19" target="EH_h6vuzFBWUohLpQMYl-1">
          <mxGeometry relative="1" as="geometry" />
        </mxCell>
        <mxCell id="EH_h6vuzFBWUohLpQMYl-19" value="" style="sketch=0;outlineConnect=0;fontColor=#232F3E;gradientColor=none;fillColor=#232F3D;strokeColor=none;dashed=0;verticalLabelPosition=bottom;verticalAlign=top;align=center;html=1;fontSize=12;fontStyle=0;aspect=fixed;pointerEvents=1;shape=mxgraph.aws4.user;" vertex="1" parent="1">
          <mxGeometry x="50" y="142" width="50" height="50" as="geometry" />
        </mxCell>
        <mxCell id="EH_h6vuzFBWUohLpQMYl-20" value="User" style="text;html=1;strokeColor=none;fillColor=none;align=center;verticalAlign=middle;whiteSpace=wrap;rounded=0;fontSize=16;" vertex="1" parent="1">
          <mxGeometry x="45" y="194" width="60" height="30" as="geometry" />
        </mxCell>
        <mxCell id="EH_h6vuzFBWUohLpQMYl-21" value="&lt;br style=&quot;border-color: var(--border-color); font-size: 16px;&quot;&gt;&lt;b&gt;&lt;i&gt;https://192.168.225.56:7778/model2?&lt;/i&gt;&lt;/b&gt;&lt;span style=&quot;background-color: rgb(255, 255, 255); font-size: 16px;&quot;&gt;&#39;&lt;br&gt;&quot;carPrcAppraisal&quot;:&quot;0.0&quot;,&lt;br&gt;&lt;/span&gt;&lt;span style=&quot;background-color: rgb(255, 255, 255); font-size: 16px;&quot;&gt;&quot;typeOfCar&quot;:&quot;PICKUP&quot;,&quot;position&quot;:&quot;พนักงาน&quot;,&lt;br&gt;&lt;/span&gt;&lt;span style=&quot;background-color: rgb(255, 255, 255); font-size: 16px;&quot;&gt;&quot;cifFlag&quot;:&quot;E&quot;,&quot;autoYear&quot;:&quot;2022&quot;,&lt;br&gt;&lt;/span&gt;&lt;span style=&quot;background-color: rgb(255, 255, 255); font-size: 16px;&quot;&gt;&quot;percentDownPayment&quot;:&quot;25.03&quot;,&lt;br style=&quot;font-size: 16px;&quot;&gt;&lt;/span&gt;&lt;span style=&quot;background-color: rgb(255, 255, 255); font-size: 16px;&quot;&gt;&quot;downPayment&quot;:&quot;232000.0&quot;,&lt;br&gt;&lt;/span&gt;&lt;span style=&quot;background-color: rgb(255, 255, 255); font-size: 16px;&quot;&gt;&quot;percentDownPaymentGross&quot;:&quot;25.03&quot;,&lt;/span&gt;&lt;br style=&quot;border-color: var(--border-color); font-size: 16px;&quot;&gt;&lt;span style=&quot;background-color: rgb(255, 255, 255); font-size: 16px;&quot;&gt;&quot;a1SubProduct&quot;:&quot;NC&quot;...&lt;/span&gt;" style="text;html=1;strokeColor=none;fillColor=none;align=left;verticalAlign=middle;whiteSpace=wrap;rounded=0;fontSize=16;" vertex="1" parent="1">
          <mxGeometry x="20" y="610" width="305" height="181" as="geometry" />
        </mxCell>
        <mxCell id="EH_h6vuzFBWUohLpQMYl-28" value="CDSW" style="text;html=1;strokeColor=none;fillColor=none;align=center;verticalAlign=middle;whiteSpace=wrap;rounded=0;fontSize=24;" vertex="1" parent="1">
          <mxGeometry x="900" y="479" width="60" height="30" as="geometry" />
        </mxCell>
        <mxCell id="EH_h6vuzFBWUohLpQMYl-29" value="&lt;h1&gt;MVC#2 Priority Matrix System&lt;/h1&gt;" style="text;html=1;strokeColor=none;fillColor=none;spacing=5;spacingTop=-20;whiteSpace=wrap;overflow=hidden;rounded=0;fontSize=16;" vertex="1" parent="1">
          <mxGeometry x="540" y="10" width="560" height="120" as="geometry" />
        </mxCell>
        <mxCell id="EH_h6vuzFBWUohLpQMYl-31" value="{&lt;br style=&quot;font-size: 14px;&quot;&gt;    &lt;span style=&quot;white-space: pre;&quot;&gt;	&lt;/span&gt;&quot;model_deployment_crn&quot;: &lt;br&gt;&lt;span style=&quot;white-space: pre;&quot;&gt;	&lt;/span&gt;&quot;crn:cdp:ml:::workspace:cdsw.dc.krungsri.net/eeff674d-f4ac-436b-8020-7abbec0db032&quot;,&lt;br style=&quot;font-size: 14px;&quot;&gt;    &lt;span style=&quot;white-space: pre;&quot;&gt;	&lt;/span&gt;&quot;prediction&quot;: {&lt;br style=&quot;font-size: 14px;&quot;&gt;&lt;span style=&quot;white-space: pre;&quot;&gt;	&lt;span style=&quot;white-space: pre;&quot;&gt;	&lt;/span&gt;&lt;/span&gt;&quot;code&quot;: &quot;00&quot;,&lt;br style=&quot;font-size: 14px;&quot;&gt;        &lt;span style=&quot;white-space: pre;&quot;&gt;	&lt;span style=&quot;white-space: pre;&quot;&gt;	&lt;/span&gt;&lt;/span&gt;&quot;msg&quot;: &quot;,rejectReasonCodeDesc is nan: replace value with str(Null)&quot;,&lt;br style=&quot;font-size: 14px;&quot;&gt;        &lt;span style=&quot;white-space: pre;&quot;&gt;	&lt;span style=&quot;white-space: pre;&quot;&gt;	&lt;/span&gt;&lt;/span&gt;&quot;percentApproved&quot;: &quot;97.9%&quot;,&lt;br style=&quot;font-size: 14px;&quot;&gt;        &lt;span style=&quot;white-space: pre;&quot;&gt;	&lt;span style=&quot;white-space: pre;&quot;&gt;	&lt;/span&gt;&lt;/span&gt;&quot;priorityScore&quot;: &quot;5&quot;,&lt;br style=&quot;font-size: 14px;&quot;&gt;        &lt;span style=&quot;white-space: pre;&quot;&gt;	&lt;span style=&quot;white-space: pre;&quot;&gt;	&lt;/span&gt;&lt;/span&gt;&quot;status&quot;: &quot;200&quot;,&lt;br style=&quot;font-size: 14px;&quot;&gt;        &lt;span style=&quot;white-space: pre;&quot;&gt;	&lt;span style=&quot;white-space: pre;&quot;&gt;	&lt;/span&gt;&lt;/span&gt;&quot;timeStamp&quot;: &quot;2023-02-14 11:12:52&quot;&lt;br style=&quot;font-size: 14px;&quot;&gt;    &lt;span style=&quot;white-space: pre;&quot;&gt;	&lt;/span&gt;},&lt;br style=&quot;font-size: 14px;&quot;&gt;    &lt;span style=&quot;white-space: pre;&quot;&gt;	&lt;/span&gt;&quot;uuid&quot;: &quot;7ba58d07-c703-4f1d-8c05-04325b080f0e&quot;&lt;br style=&quot;font-size: 14px;&quot;&gt;}" style="text;html=1;strokeColor=none;fillColor=none;align=left;verticalAlign=middle;whiteSpace=wrap;rounded=0;fontSize=14;" vertex="1" parent="1">
          <mxGeometry x="369" y="160" width="611" height="170" as="geometry" />
        </mxCell>
        <mxCell id="EH_h6vuzFBWUohLpQMYl-32" value="" style="sketch=0;outlineConnect=0;fontColor=#232F3E;gradientColor=none;fillColor=#232F3D;strokeColor=none;dashed=0;verticalLabelPosition=bottom;verticalAlign=top;align=center;html=1;fontSize=12;fontStyle=0;aspect=fixed;pointerEvents=1;shape=mxgraph.aws4.documents2;" vertex="1" parent="1">
          <mxGeometry x="282.69" y="60" width="77.31" height="90" as="geometry" />
        </mxCell>
        <mxCell id="EH_h6vuzFBWUohLpQMYl-36" value="Prioritize Case" style="text;html=1;strokeColor=none;fillColor=none;align=center;verticalAlign=middle;whiteSpace=wrap;rounded=0;fontSize=16;" vertex="1" parent="1">
          <mxGeometry x="360" y="80" width="120" height="30" as="geometry" />
        </mxCell>
      </root>
    </mxGraphModel>
  </diagram>
</mxfile>
